<?xml version="1.0" encoding="utf-8"?>
<!-- Generator: Adobe Illustrator 21.1.0, SVG Export Plug-In . SVG Version: 6.00 Build 0)  -->
<!DOCTYPE svg PUBLIC "-//W3C//DTD SVG 1.1//EN" "http://www.w3.org/Graphics/SVG/1.1/DTD/svg11.dtd">
<svg version="1.1" id="Layer_1" xmlns="http://www.w3.org/2000/svg" xmlns:xlink="http://www.w3.org/1999/xlink" x="0px" y="0px"
	 viewBox="0 0 281.1 264" style="enable-background:new 0 0 281.1 264;" xml:space="preserve">
<style type="text/css">
	.st0{fill:#004E94;}
	.st1{fill:#FFFFFF;}
	.st2{fill:#FFD900;}
</style>
<rect class="st0" width="281.1" height="264"/>
<g>
	<path class="st1" d="M87.8,113.9c-5.7,2.6-12.2,3.9-19.6,3.9c-6.7,0-12.9-1.1-18.6-3.3c-5.7-2.2-10.6-5.4-14.8-9.4
		c-4.2-4.1-7.5-8.9-9.8-14.6c-2.4-5.7-3.6-11.9-3.6-18.7c0-7,1.2-13.3,3.6-19c2.4-5.7,5.8-10.5,10-14.5c4.3-4,9.3-7,15-9.2
		C55.7,27,61.9,26,68.6,26c6.2,0,12.2,1.1,18.2,3.3c5.9,2.2,10.8,5.4,14.5,9.5L86.9,53c-2-2.7-4.6-4.7-7.8-6c-3.2-1.3-6.5-2-9.8-2
		c-3.7,0-7.1,0.7-10.2,2c-3.1,1.4-5.7,3.2-7.9,5.6c-2.2,2.4-3.9,5.2-5.2,8.4c-1.2,3.2-1.8,6.8-1.8,10.6c0,3.9,0.6,7.6,1.8,10.8
		c1.2,3.3,2.9,6.1,5.1,8.4c2.2,2.3,4.8,4.2,7.8,5.5c3,1.3,6.4,2,10,2c4.2,0,7.8-0.8,11-2.5c3.1-1.6,5.6-3.8,7.5-6.4l14.6,13.8
		C98.2,107.8,93.4,111.3,87.8,113.9z"/>
	<path class="st1" d="M189.9,71.6c0,7.6-1.4,14.2-4.2,19.8c-2.8,5.5-6.6,10.1-11.2,13.7c-4.6,3.6-9.9,6.2-15.7,7.9
		c-5.8,1.7-11.7,2.5-17.7,2.5h-32.5V28.3h31.5c6.2,0,12.2,0.7,18.2,2.2c6,1.4,11.3,3.8,16,7.1c4.7,3.3,8.5,7.8,11.3,13.4
		C188.5,56.5,189.9,63.4,189.9,71.6z M168,71.6c0-4.9-0.8-9-2.4-12.2c-1.6-3.2-3.7-5.8-6.4-7.8c-2.7-1.9-5.7-3.3-9.1-4.1
		c-3.4-0.8-6.9-1.2-10.5-1.2h-10.5v51h10c3.8,0,7.4-0.4,10.9-1.3c3.5-0.9,6.6-2.3,9.2-4.2c2.7-2,4.8-4.6,6.4-7.9
		C167.2,80.5,168,76.5,168,71.6z"/>
	<path class="st1" d="M222.2,46.3v18h33.7v17.4h-33.7v33.9h-20.8V28.3h57.4v18H222.2z"/>
</g>
<path class="st2" d="M103.3,169.7c0,4.8-0.7,9.5-2.2,13.9c-1.5,4.5-3.6,8.4-6.5,11.8c-2.8,3.4-6.3,6.1-10.4,8.1
	c-4.1,2-8.7,3.1-13.9,3.1c-4.3,0-8.3-0.9-12.1-2.6c-3.8-1.7-6.8-4.1-8.9-7H49V238H26.1V135.3h21.7v8.5h0.4c2.1-2.8,5.1-5.2,8.8-7.3
	c3.8-2.1,8.2-3.1,13.3-3.1c5,0,9.6,1,13.6,2.9c4.1,2,7.5,4.6,10.4,7.9c2.8,3.3,5,7.2,6.5,11.6C102.5,160.2,103.3,164.8,103.3,169.7z
	 M81.1,169.7c0-2.2-0.3-4.4-1-6.5c-0.7-2.1-1.7-4-3.1-5.6c-1.3-1.6-3-2.9-5.1-4c-2-1-4.4-1.5-7.1-1.5c-2.6,0-4.9,0.5-7,1.5
	c-2,1-3.8,2.4-5.2,4c-1.4,1.7-2.6,3.6-3.3,5.7c-0.8,2.1-1.2,4.3-1.2,6.5c0,2.2,0.4,4.4,1.2,6.5c0.8,2.1,1.9,4,3.3,5.7
	c1.4,1.7,3.2,3,5.2,4c2,1,4.4,1.5,7,1.5c2.7,0,5.1-0.5,7.1-1.5c2-1,3.7-2.4,5.1-4c1.3-1.7,2.4-3.6,3.1-5.8
	C80.8,174.1,81.1,171.9,81.1,169.7z"/>
<path class="st2" d="M111.1,144.7c4.1-3.9,8.8-6.8,14.3-8.8c5.4-2,11-2.9,16.6-2.9c5.8,0,10.8,0.7,14.8,2.2c4,1.4,7.3,3.7,9.8,6.7
	c2.5,3,4.3,6.8,5.5,11.4c1.2,4.6,1.7,10,1.7,16.4v34.9H153v-7.4h-0.4c-1.8,2.9-4.4,5.1-8,6.7c-3.6,1.6-7.4,2.4-11.6,2.4
	c-2.8,0-5.7-0.4-8.6-1.1c-3-0.7-5.7-2-8.1-3.6c-2.5-1.7-4.5-3.9-6.1-6.7c-1.6-2.8-2.4-6.2-2.4-10.3c0-5,1.4-9.1,4.1-12.1
	c2.7-3.1,6.3-5.4,10.6-7.1c4.3-1.7,9.1-2.8,14.4-3.3c5.3-0.6,10.4-0.8,15.5-0.8v-1.1c0-3.4-1.2-6-3.6-7.6c-2.4-1.6-5.4-2.4-8.9-2.4
	c-3.3,0-6.4,0.7-9.4,2.1c-3,1.4-5.6,3.1-7.7,5L111.1,144.7z M153,174.4H150c-2.5,0-5,0.1-7.6,0.3c-2.6,0.2-4.8,0.7-6.8,1.3
	c-2,0.6-3.6,1.6-4.9,2.9c-1.3,1.3-2,2.9-2,4.9c0,1.3,0.3,2.4,0.9,3.3c0.6,0.9,1.4,1.7,2.3,2.2c0.9,0.6,2,1,3.2,1.2
	c1.2,0.2,2.4,0.3,3.5,0.3c4.6,0,8.2-1.3,10.7-3.8c2.5-2.6,3.7-6,3.7-10.4V174.4z"/>
<rect x="62.3" y="218.7" class="st2" width="111.9" height="18"/>
<g>
	<path class="st2" d="M239.1,224.4v12.1h-3.3v-12.1H232v-3.2h10.9v3.2H239.1z"/>
	<path class="st2" d="M256.6,236.5l0.1-10.8h-0.1l-3.5,10.8h-2.3l-3.4-10.8h-0.1l0.1,10.8h-3.1v-15.3h4.6l3.1,9.8h0.1l2.9-9.8h4.7
		v15.3H256.6z"/>
</g>
<path class="st2" d="M233.7,135.3l-13.8,44.6h-0.4L204,135.3h-25.3l29,68.2l-2.2,5.7c-1.1,3-2.5,5.3-4,6.9c-1.6,1.6-4.1,2.4-7.7,2.4
	c-1.1,0-2.3-0.1-3.7-0.3c-1.3-0.2-2.6-0.5-3.7-0.9V237c1,0.3,1.5,0.4,3.4,0.6c2.3,0.3,4.5,0.4,6.6,0.4c4.4,0,8.1-0.5,11.3-1.5
	c3.2-1,6-2.5,8.4-4.5c2.4-2,4.4-4.4,6.1-7.2c1.7-2.8,3.3-6.1,4.7-9.7l31-79.8H233.7z"/>
</svg>
